<svg id="レイヤー_1" data-name="レイヤー 1" xmlns="http://www.w3.org/2000/svg" viewBox="0 0 165.3 25.4"><path d="M29.1,3.6a.4.4,0,0,1-.4.4H24.8V27.7a.5.5,0,0,1-.5.5H8a.6.6,0,0,1-.5-.5V4H3.7a.4.4,0,0,1-.4-.4.4.4,0,0,1,.4-.4h25A.4.4,0,0,1,29.1,3.6Z" transform="translate(-3.3 -3)"/><path d="M58.1,3.7v24a.6.6,0,0,1-.5.5H41.3a.5.5,0,0,1-.5-.5V16.6H34.1V27.8a.5.5,0,1,1-1,0V3.7a.5.5,0,0,1,.5-.5h24A.5.5,0,0,1,58.1,3.7ZM38.7,23.8a1.3,1.3,0,0,1-1.3,1.3A1.3,1.3,0,0,1,36,23.8a1.3,1.3,0,0,1,1.4-1.3A1.3,1.3,0,0,1,38.7,23.8Z" transform="translate(-3.3 -3)"/><path d="M88.6,3.7v24a.6.6,0,0,1-.5.5H71.8a.5.5,0,0,1-.5-.5V16.6H67.7V27.9c0,.2-.3.4-.5.4a.5.5,0,0,1-.5-.4V16.6H63.3V27.9a.5.5,0,0,1-.5.4.4.4,0,0,1-.4-.4V3.7a.5.5,0,0,1,.4-.5H88.1A.5.5,0,0,1,88.6,3.7Z" transform="translate(-3.3 -3)"/><path d="M117.8,3.7v24a.5.5,0,0,1-.5.5H101a.6.6,0,0,1-.5-.5V16.6H93.8V27.8a.5.5,0,0,1-1,0V3.7a.5.5,0,0,1,.5-.5h24A.5.5,0,0,1,117.8,3.7ZM98.4,23.8a1.3,1.3,0,0,1-1.3,1.3,1.3,1.3,0,0,1-1.3-1.3,1.2,1.2,0,0,1,1.3-1.3A1.3,1.3,0,0,1,98.4,23.8Z" transform="translate(-3.3 -3)"/><path d="M147.4,3.6,144.2,14l3.1,13.8a.3.3,0,0,1-.3.5.5.5,0,0,1-.6-.3l-3.1-13.8h-4V27.7a.5.5,0,0,1-.5.5H122.6a.5.5,0,0,1-.5-.5V3.7a.5.5,0,0,1,.5-.5h16.2a.5.5,0,0,1,.5.5v9.6h4.1l3.1-10c.1-.2.4-.4.6-.3A.4.4,0,0,1,147.4,3.6Z" transform="translate(-3.3 -3)"/><path d="M168.1,3.2a.5.5,0,0,1,.5.5v24a.5.5,0,0,1-.5.5H151.8a.6.6,0,0,1-.5-.5V3.7a.5.5,0,0,1,.5-.5Z" transform="translate(-3.3 -3)"/></svg>