<?xml version="1.0" encoding="utf-8"?>
<!-- Generator: Adobe Illustrator 25.2.3, SVG Export Plug-In . SVG Version: 6.00 Build 0)  -->
<svg version="1.1" id="レイヤー_1" xmlns="http://www.w3.org/2000/svg" xmlns:xlink="http://www.w3.org/1999/xlink" x="0px"
	 y="0px" viewBox="0 0 248.5 30.1" style="enable-background:new 0 0 248.5 30.1;" xml:space="preserve">
<rect x="28.7" y="0.1" width="21" height="29.8"/>
<rect x="23.9" y="0" width="30.5" height="1"/>
<rect x="59.8" y="0.6" width="30.6" height="15.6"/>
<rect x="69.2" y="5.5" width="21.1" height="24.5"/>
<rect x="59.8" y="1.2" width="1.2" height="28.9"/>
<rect x="95.5" y="1.4" width="1.2" height="28.9"/>
<rect x="100.8" y="1.5" width="1.2" height="28.9"/>
<rect x="132.3" y="1.5" width="1.2" height="28.9"/>
<rect x="95.5" y="0.3" width="32.1" height="15.9"/>
<rect x="106.8" y="12.1" width="20.8" height="18.5"/>
<rect x="132.3" y="0.2" width="32.1" height="15.9"/>
<rect x="143.5" y="12.2" width="20.8" height="18.5"/>
<circle cx="137.9" cy="25.2" r="1.7"/>
<circle cx="65" cy="25.2" r="1.7"/>
<rect x="168.5" y="0.6" width="21.1" height="29.3"/>
<rect x="204.1" y="0.9" width="21.1" height="29.3"/>
<rect x="188.5" y="12.5" width="6.6" height="1.1"/>
<rect x="189.9" y="6.2" transform="matrix(0.3082 -0.9513 0.9513 0.3082 129.728 191.9377)" width="13.8" height="1.2"/>
<rect x="187.8" y="20.9" transform="matrix(0.2181 0.9759 -0.9759 0.2181 174.8049 -175.2465)" width="17.9" height="1.2"/>
</svg>
