<svg id="レイヤー_2" data-name="レイヤー 2" xmlns="http://www.w3.org/2000/svg" viewBox="0 0 1149.7 174.9"><rect x="27.4" y="0.7" width="119.8" height="170.46"/><rect y="0.2" width="174.1" height="5.95"/><rect x="205.2" y="3.6" width="174.6" height="89.07"/><rect x="258.9" y="31.3" width="120.8" height="139.79"/><rect x="205.2" y="7" width="6.8" height="165.15"/><rect x="409.4" y="8.2" width="6.8" height="165.15"/><rect x="439.5" y="8.8" width="6.8" height="165.15"/><rect x="619.4" y="8.8" width="6.8" height="165.15"/><rect x="409.3" y="1.9" width="183.4" height="90.91"/><rect x="473.9" y="69" width="118.9" height="105.5"/><rect x="619.3" y="1.3" width="183.4" height="90.91"/><rect x="683.5" y="69.4" width="118.9" height="105.5"/><circle cx="651.4" cy="143.9" r="9.5"/><circle cx="235.1" cy="143.6" r="9.5"/><rect x="825.9" y="3.6" width="120.3" height="167.53"/><rect x="1029.4" y="5.3" width="120.3" height="167.53"/><rect x="940.2" y="71.3" width="37.7" height="6.5"/><rect x="1088.8" y="669.3" width="78.9" height="6.75" transform="translate(0.3 904.6) rotate(-72)"/><rect x="1076.7" y="753.3" width="102.3" height="6.75" transform="translate(1480.1 -1143.2) rotate(77.4)"/></svg>