<svg xmlns="http://www.w3.org/2000/svg" viewBox="0 0 235 22.9"><g id="レイヤー_2" data-name="レイヤー 2"><g id="レイヤー_1-2" data-name="レイヤー 1"><path d="M29.1,20.7c0,.2-.3.4-.5.4H20.8v4a.5.5,0,0,1-.5.4H2.9c-.3,0-.6-.2-.6-.4V3.8c0-.2.3-.4.6-.4H28.6c.2,0,.5.2.5.4ZM28,20.3v-5H20.8v5Z" transform="translate(-2.3 -2.6)"/><path d="M56.4,7.1v18c0,.2-.3.4-.6.4H34.2c-.3,0-.6-.2-.6-.4V7.1c0-.2.3-.4.6-.4H55.8C56.1,6.7,56.4,6.9,56.4,7.1Zm-1.1,8.3V7.5h-6v7.9Z" transform="translate(-2.3 -2.6)"/><path d="M83.7,7.1V9.2a.5.5,0,0,1-.5.5.6.6,0,0,1-.6-.5V7.5h-6V25.1a.5.5,0,0,1-.5.4H61.5a.5.5,0,0,1-.5-.4V7.1a.5.5,0,0,1,.5-.4H83.2C83.4,6.7,83.7,6.9,83.7,7.1Z" transform="translate(-2.3 -2.6)"/><path d="M110.8,13.7V25.1a.5.5,0,0,1-.5.4H89.9a.5.5,0,0,1-.5-.4V7.5H88a.4.4,0,0,1,0-.8h1.4V3.8a.5.5,0,0,1,.5-.4h14.7c.2,0,.5.2.5.4V6.7h5.4a.4.4,0,1,1,0,.8h-5.4v7.9h4.7V13.7a.5.5,0,0,1,1,0Z" transform="translate(-2.3 -2.6)"/><path d="M142.2,3.8v11a.6.6,0,0,1-.6.5h-7.7v9.8c0,.2-.3.4-.5.4H116c-.3,0-.6-.2-.6-.4V3.8c0-.2.3-.4.6-.4h25.6C141.9,3.4,142.2,3.6,142.2,3.8Zm-2.3,16.8a1.4,1.4,0,0,1-1.5,1.2,1.3,1.3,0,0,1-1.4-1.2c0-.6.7-1.1,1.4-1.1S139.9,20,139.9,20.6Z" transform="translate(-2.3 -2.6)"/><path d="M169.4,7.1v18a.5.5,0,0,1-.5.4H147.2c-.2,0-.5-.2-.5-.4V7.1c0-.2.3-.4.5-.4h21.7A.5.5,0,0,1,169.4,7.1Zm-1,8.3V7.5h-6v7.9Z" transform="translate(-2.3 -2.6)"/><path d="M189.2,3.4a.5.5,0,0,1,.5.4V25.1a.5.5,0,0,1-.5.4H174.6c-.3,0-.6-.2-.6-.4V3.8c0-.2.3-.4.6-.4Z" transform="translate(-2.3 -2.6)"/><path d="M209.5,6.7a.5.5,0,0,1,.5.4v18a.5.5,0,0,1-.5.4H194.8a.5.5,0,0,1-.5-.4V7.1a.5.5,0,0,1,.5-.4Zm-5.9-2.9c0,.6-.6,1.1-1.5,1.1s-1.4-.5-1.4-1.1a1.3,1.3,0,0,1,1.4-1.2C203,2.6,203.6,3.1,203.6,3.8Z" transform="translate(-2.3 -2.6)"/><path d="M237.3,7.1v18a.5.5,0,0,1-.5.4H215.1a.5.5,0,0,1-.5-.4V7.1a.5.5,0,0,1,.5-.4h21.7A.5.5,0,0,1,237.3,7.1Zm-1,8.3V7.5h-6v7.9Z" transform="translate(-2.3 -2.6)"/></g></g></svg>