<svg xmlns="http://www.w3.org/2000/svg" viewBox="0 0 755 76.8"><g id="レイヤー_2" data-name="レイヤー 2"><g id="レイヤー_1-2" data-name="レイヤー 1"><path d="M87.7,60.7A1.6,1.6,0,0,1,86,62.1H60.6V75.4a1.6,1.6,0,0,1-1.8,1.4H1.7A1.5,1.5,0,0,1,0,75.4V4.2A1.5,1.5,0,0,1,1.7,2.8H86a1.6,1.6,0,0,1,1.7,1.4Zm-3.4-1.1V42.5H60.6V59.6Z"/><path d="M177.3,15.3V75.4a1.6,1.6,0,0,1-1.7,1.4H104.4a1.6,1.6,0,0,1-1.7-1.4V15.3a1.7,1.7,0,0,1,1.7-1.4h71.2A1.6,1.6,0,0,1,177.3,15.3Zm-3.4,27.8V16.4H154.2V43.1Z"/><path d="M266.9,15.3v7.1a1.7,1.7,0,0,1-3.4,0v-6H243.8v59a1.5,1.5,0,0,1-1.7,1.4h-48a1.5,1.5,0,0,1-1.7-1.4V15.3a1.6,1.6,0,0,1,1.7-1.4h71.1A1.6,1.6,0,0,1,266.9,15.3Z"/><path d="M356,37.2V75.4a1.6,1.6,0,0,1-1.7,1.4H287.4a1.5,1.5,0,0,1-1.7-1.4v-59h-4.4c-.9,0-1.5-.5-1.5-1.2a1.4,1.4,0,0,1,1.5-1.3h4.4V4.2a1.5,1.5,0,0,1,1.7-1.4h48.1a1.6,1.6,0,0,1,1.7,1.4v9.7h17.7a1.4,1.4,0,0,1,1.5,1.3c0,.7-.6,1.2-1.5,1.2H337.2V43.1h15.3V37.2a1.8,1.8,0,0,1,1.8-1.5A1.7,1.7,0,0,1,356,37.2Z"/><path d="M443.3,15.2c0,.7-.8,1.2-1.5,1.2h-14v59c0,.8-.9,1.4-1.8,1.4H377.9a1.5,1.5,0,0,1-1.7-1.4v-59h-6.6c-.9,0-1.5-.5-1.5-1.2a1.4,1.4,0,0,1,1.5-1.3h6.6V4.2a1.6,1.6,0,0,1,1.7-1.4h63.9a1.5,1.5,0,0,1,1.5,1.3c0,.7-.8,1.2-1.5,1.2h-14v8.6h14A1.5,1.5,0,0,1,443.3,15.2Z"/><path d="M532.2,15.3V75.4a1.6,1.6,0,0,1-1.7,1.4H459.3a1.6,1.6,0,0,1-1.7-1.4V15.3a1.7,1.7,0,0,1,1.7-1.4h71.2A1.6,1.6,0,0,1,532.2,15.3Zm-3.4,27.8V16.4H509.1V43.1Z"/><path d="M597,2.8a1.6,1.6,0,0,1,1.7,1.4V75.4a1.5,1.5,0,0,1-1.7,1.4H549a1.5,1.5,0,0,1-1.7-1.4V4.2A1.6,1.6,0,0,1,549,2.8Z"/><path d="M663.6,13.9a1.7,1.7,0,0,1,1.7,1.4V75.4a1.6,1.6,0,0,1-1.7,1.4H615.5a1.6,1.6,0,0,1-1.7-1.4V15.3a1.7,1.7,0,0,1,1.7-1.4ZM644.2,4c0,2.1-2,3.9-4.7,3.9s-4.7-1.8-4.7-3.9,2.1-4,4.7-4S644.2,1.8,644.2,4Z"/><path d="M755,15.3V75.4a1.6,1.6,0,0,1-1.8,1.4H682.1a1.5,1.5,0,0,1-1.7-1.4V15.3a1.6,1.6,0,0,1,1.7-1.4h71.1A1.6,1.6,0,0,1,755,15.3Zm-3.5,27.8V16.4H731.8V43.1Z"/></g></g></svg>