<svg xmlns="http://www.w3.org/2000/svg" viewBox="0 0 1345 162.2"><g id="レイヤー_2" data-name="レイヤー 2"><g id="レイヤー_1-2" data-name="レイヤー 1"><path d="M156.3,128.1a3.1,3.1,0,0,1-3,3H107.9v28.1a3,3,0,0,1-3.1,3H3.1a3,3,0,0,1-3.1-3V9A3,3,0,0,1,3.1,5.9H153.3a3.1,3.1,0,0,1,3,3.1Zm-6.1-2.3v-36H107.9v36Z"/><path d="M315.9,32.4V159.2a3,3,0,0,1-3.1,3H186a2.9,2.9,0,0,1-3-3V32.4a3.1,3.1,0,0,1,3-3H312.8A3,3,0,0,1,315.9,32.4Zm-6.1,58.5V34.7H274.7V90.9Z"/><path d="M475.6,32.4V47.3a3.2,3.2,0,0,1-3.1,3,3.1,3.1,0,0,1-3-3V34.7H434.4V159.2a2.9,2.9,0,0,1-3,3H345.8a3,3,0,0,1-3.1-3V32.4a3.2,3.2,0,0,1,3.1-3H472.5A3.1,3.1,0,0,1,475.6,32.4Z"/><path d="M634.2,78.5v80.7a3,3,0,0,1-3.1,3H512a2.9,2.9,0,0,1-3-3V34.7h-7.9a2.6,2.6,0,0,1-2.6-2.7,2.6,2.6,0,0,1,2.6-2.6H509V9a3,3,0,0,1,3-3.1h85.8a3.1,3.1,0,0,1,3,3.1V29.4h31.5a2.6,2.6,0,0,1,2.6,2.6,2.6,2.6,0,0,1-2.6,2.7H600.8V90.9h27.3V78.5a3.1,3.1,0,0,1,3-3A3,3,0,0,1,634.2,78.5Z"/><path d="M789.7,32a2.7,2.7,0,0,1-2.6,2.7h-25V159.2a3.1,3.1,0,0,1-3.1,3H673.3a3,3,0,0,1-3.1-3V34.7H658.4a2.7,2.7,0,0,1-2.7-2.7,2.7,2.7,0,0,1,2.7-2.6h11.8V9a3.1,3.1,0,0,1,3.1-3.1H787.1a2.8,2.8,0,0,1,2.6,2.7,2.6,2.6,0,0,1-2.6,2.6h-25V29.4h25A2.8,2.8,0,0,1,789.7,32Z"/><path d="M948.1,32.4V159.2a2.9,2.9,0,0,1-3,3H818.3a2.9,2.9,0,0,1-3-3V32.4a3.1,3.1,0,0,1,3-3H945.1A2.9,2.9,0,0,1,948.1,32.4ZM942,90.9V34.7H907V90.9Z"/><path d="M1063.7,5.9a3.1,3.1,0,0,1,3,3.1V159.2a2.9,2.9,0,0,1-3,3H978.1a3,3,0,0,1-3.1-3V9a3.1,3.1,0,0,1,3.1-3.1Z"/><path d="M1182.2,29.4a3.2,3.2,0,0,1,3.1,3V159.2a3,3,0,0,1-3.1,3h-85.6a2.9,2.9,0,0,1-3-3V32.4a3.1,3.1,0,0,1,3-3Zm-34.5-21a8.3,8.3,0,0,1-8.4,8.4,8.5,8.5,0,0,1-8.4-8.4,8.5,8.5,0,0,1,8.4-8.4A8.3,8.3,0,0,1,1147.7,8.4Z"/><path d="M1345,32.4V159.2a2.9,2.9,0,0,1-3,3H1215.2a2.9,2.9,0,0,1-3-3V32.4a3.1,3.1,0,0,1,3-3H1342A2.9,2.9,0,0,1,1345,32.4Zm-6.1,58.5V34.7h-35.1V90.9Z"/></g></g></svg>